<?xml version="1.0" encoding="UTF-8" standalone="no"?><!DOCTYPE svg PUBLIC "-//W3C//DTD SVG 1.1//EN" "http://www.w3.org/Graphics/SVG/1.1/DTD/svg11.dtd"><svg width="100%" height="100%" viewBox="0 0 111 109" version="1.1" xmlns="http://www.w3.org/2000/svg" xmlns:xlink="http://www.w3.org/1999/xlink" xml:space="preserve" xmlns:serif="http://www.serif.com/" style="fill-rule:evenodd;clip-rule:evenodd;stroke-linecap:round;stroke-linejoin:round;stroke-miterlimit:1.5;"><g><circle cx="50" cy="54.284" r="50" style="fill:#9cfeff;"/><circle cx="57" cy="54.284" r="50" style="fill:none;stroke:#000;stroke-width:7.5px;"/><circle cx="42" cy="49.284" r="5"/><circle cx="82" cy="49.284" r="5"/><path d="M37,80.634c13.732,7.011 27.072,7.122 40,0" style="fill:none;stroke:#000;stroke-width:7.5px;"/><path d="M61,57l4,10l-6,4" style="fill:none;stroke:#000;stroke-width:7.5px;"/><path d="M34.5,23.287c0,6.306 -5.041,11.426 -11.25,11.426c-6.209,0 -11.25,-5.12 -11.25,-11.426" style="fill:none;stroke:#000;stroke-width:7.5px;"/><path d="M79.5,23.287c0,6.306 -5.041,11.426 -11.25,11.426c-6.209,0 -11.25,-5.12 -11.25,-11.426" style="fill:none;stroke:#000;stroke-width:7.5px;"/><path d="M57,23.287c0,6.306 -5.041,11.426 -11.25,11.426c-6.209,0 -11.25,-5.12 -11.25,-11.426" style="fill:none;stroke:#000;stroke-width:7.5px;"/><path d="M102,23.287c0,6.306 -5.041,11.426 -11.25,11.426c-6.209,0 -11.25,-5.12 -11.25,-11.426" style="fill:none;stroke:#000;stroke-width:7.5px;"/></g></svg>