<?xml version="1.0" encoding="UTF-8" standalone="no"?><!DOCTYPE svg PUBLIC "-//W3C//DTD SVG 1.1//EN" "http://www.w3.org/Graphics/SVG/1.1/DTD/svg11.dtd"><svg width="100%" height="100%" viewBox="0 0 120 113" version="1.1" xmlns="http://www.w3.org/2000/svg" xmlns:xlink="http://www.w3.org/1999/xlink" xml:space="preserve" xmlns:serif="http://www.serif.com/" style="fill-rule:evenodd;clip-rule:evenodd;stroke-linecap:round;stroke-linejoin:round;stroke-miterlimit:1.5;"><g><path d="M36,29c-12.715,30.604 -8.06,80.432 -20,80" style="fill:none;stroke:#000;stroke-width:7.5px;"/><path d="M46,29c-12.715,30.604 -8.06,80.432 -20,80" style="fill:none;stroke:#000;stroke-width:7.5px;"/><circle cx="59" cy="54.284" r="50" style="fill:#9cffa0;"/><circle cx="66" cy="54.284" r="50" style="fill:none;stroke:#000;stroke-width:7.5px;"/><circle cx="51" cy="49.284" r="5"/><circle cx="91" cy="49.284" r="5"/><path d="M46,80.634c13.732,7.011 27.072,7.122 40,0" style="fill:none;stroke:#000;stroke-width:7.5px;"/><path d="M69,56.784c9.389,3.541 11.557,7.692 0,13" style="fill:none;stroke:#000;stroke-width:7.5px;"/><path d="M56,7.088c-2.75,19.119 -16.026,28.922 -37,31.912" style="fill:none;stroke:#000;stroke-width:7.5px;"/><path d="M76.876,7.088c-2.75,19.119 -16.026,28.922 -37,31.912" style="fill:none;stroke:#000;stroke-width:7.5px;"/><path d="M91.438,14.173c-2.75,14.874 -16.026,22.501 -37,24.827" style="fill:none;stroke:#000;stroke-width:7.5px;"/><path d="M24,29c-12.715,30.604 -8.06,80.432 -20,80" style="fill:none;stroke:#000;stroke-width:7.5px;"/></g></svg>